<?xml version="1.0" encoding="UTF-8"?><svg xmlns="http://www.w3.org/2000/svg" version="1.2" width="200.000000pt" height="200.000000pt" viewBox="0 0 200.000000 200.000000" preserveAspectRatio="xMidYMid meet" baseProfile="tiny-ps"><title>nektos</title><g transform="translate(0.000000,200.000000) scale(0.100000,-0.100000)" fill="#000000" stroke="none"><path d="M1017 1535 c-151 -91 -282 -176 -291 -189 -15 -24 -14 -25 17 -44 398 -237 514 -307 524 -316 10 -9 -52 -50 -260 -173 -149 -90 -279 -167 -287 -172 -8 -5 -12 -12 -8 -16 4 -4 87 40 185 98 324 191 388 232 391 255 3 17 -40 46 -275 187 -152 91 -279 168 -281 169 -2 3 366 226 567 344 10 5 11 11 4 15 -5 4 -134 -68 -286 -158z"></path><path d="M1587 1169 c-158 -95 -284 -176 -281 -181 3 -5 15 -3 27 5 12 7 135 80 272 162 251 149 283 170 274 180 -3 3 -135 -72 -292 -166z"></path><path d="M397 1165 c-233 -139 -300 -185 -273 -185 6 0 559 331 571 341 5 6 3 9 -6 9 -9 0 -140 -74 -292 -165z"></path><path d="M120 963 c0 -9 553 -343 570 -343 19 0 10 17 -15 28 -13 6 -138 79 -276 163 -266 159 -279 166 -279 152z"></path><path d="M1305 960 c7 -11 528 -324 558 -336 9 -3 17 -2 17 3 0 5 -35 29 -77 53 -43 24 -169 99 -281 167 -192 116 -232 137 -217 113z"></path><path d="M730 601 c0 -7 148 -98 528 -323 17 -11 38 -18 45 -15 8 2 5 8 -8 15 -11 7 -140 84 -288 172 -147 88 -269 160 -272 160 -3 0 -5 -4 -5 -9z"></path></g></svg>